<svg xmlns="http://www.w3.org/2000/svg" viewBox="0 0 110 110"><g id="Layer_2" data-name="Layer 2"><g id="Layer_1-2" data-name="Layer 1"><path d="M93.89,16.11Z"/><polygon points="93.89 16.11 93.89 16.11 93.89 16.11 93.89 16.11"/><path d="M55,109.5c-.83,0-1.68,0-2.52-.06A54.74,54.74,0,0,1,.54,57.08,54,54,0,0,1,5.2,32.84a4.52,4.52,0,0,1,4.12-2.66,4.47,4.47,0,0,1,2.84,1L26.51,42.94A4.49,4.49,0,0,1,28,47.6a28,28,0,1,0,54,0,4.52,4.52,0,0,1,1.47-4.7L97.84,31.2a4.47,4.47,0,0,1,2.84-1,4.52,4.52,0,0,1,4.12,2.66A54.52,54.52,0,0,1,55,109.5Z"/><path d="M100.68,30.68A4,4,0,0,1,104.34,33,54,54,0,0,1,55,109c-.83,0-1.67,0-2.49-.06A54.24,54.24,0,0,1,1,57.06,53.59,53.59,0,0,1,5.66,33a4,4,0,0,1,6.19-1.45L26.19,43.33a4,4,0,0,1,1.32,4.14A28.51,28.51,0,0,0,55,83.5a29.21,29.21,0,0,0,3.09-.16A28.51,28.51,0,0,0,82.5,47.51a4,4,0,0,1,1.31-4.18L98.15,31.59a4,4,0,0,1,2.53-.91m0-1a5,5,0,0,0-3.16,1.14L83.18,42.55a5,5,0,0,0-1.64,5.22A27.9,27.9,0,0,1,82.34,58,27.5,27.5,0,0,1,27.5,55a27.26,27.26,0,0,1,1-7.27,5,5,0,0,0-1.66-5.18L12.48,30.82a5,5,0,0,0-7.73,1.82,55,55,0,0,0,47.71,77.3c.85,0,1.7.06,2.54.06a55,55,0,0,0,50.25-77.37,5,5,0,0,0-4.57-3Z"/><path d="M63.59,28.15A4.38,4.38,0,0,1,62.4,28a28.15,28.15,0,0,0-14.8,0,4.38,4.38,0,0,1-1.19.16h0a4.49,4.49,0,0,1-3.47-1.64L31.21,12.16a4.5,4.5,0,0,1,1.63-7,54.59,54.59,0,0,1,44.32,0,4.5,4.5,0,0,1,1.63,7L67.06,26.51A4.49,4.49,0,0,1,63.59,28.15Z"/><path d="M55,1A53.59,53.59,0,0,1,77,5.66a4,4,0,0,1,1.45,6.19L66.67,26.19a4,4,0,0,1-3.08,1.46,3.81,3.81,0,0,1-1.06-.14,28.57,28.57,0,0,0-15.06,0,3.81,3.81,0,0,1-1.06.14,4,4,0,0,1-3.08-1.46L31.59,11.85A4,4,0,0,1,33,5.66,53.59,53.59,0,0,1,55,1m0-1A54.76,54.76,0,0,0,32.63,4.75a5,5,0,0,0-1.81,7.73L42.55,26.82a5,5,0,0,0,3.86,1.83,4.93,4.93,0,0,0,1.32-.17,27.46,27.46,0,0,1,14.54,0,4.93,4.93,0,0,0,1.32.17,5,5,0,0,0,3.86-1.83L79.18,12.48a5,5,0,0,0-1.81-7.73A54.76,54.76,0,0,0,55,0Z"/><path d="M16.11,16.11Z"/><polygon points="16.11 16.11 16.11 16.11 16.11 16.11 16.11 16.11"/></g></g></svg>